<?xml version="1.0" encoding="UTF-8"?>
<svg id="Calque_2" data-name="Calque 2" xmlns="http://www.w3.org/2000/svg" viewBox="0 0 325.5 137.94">
  <defs>
    <style>
      .cls-1 {
        fill: #0031ff;
      }
    </style>
  </defs>
  <g id="Maquette">
    <g>
      <path class="cls-1" d="m.83,11.24h-.17C.67,7.42,1.71,4.6,3.79,2.78,5.86.96,9.06.06,13.39.06l22.79,27.67c0,3.67-.99,6.3-2.98,7.88-1.93,1.54-5.08,2.31-9.46,2.31L.83,11.24Zm-.08,7.51l16.53,19.18H.75v-19.18ZM19.01.06h17.17v19.06L19.01.06Z"/>
      <path class="cls-1" d="m42.81.06h12.47v3.87c0,4.77-.86,8.02-2.59,9.74-1.41,1.41-3.66,2.12-6.76,2.12h-3.12V.06ZM58.39.06h14.97v37.88h-14.97V.06ZM76.4.06h12.47v15.73h-3.12c-2.04,0-3.54-.22-4.51-.65-.96-.44-1.72-.93-2.27-1.47s-1.02-1.27-1.41-2.16c-.78-1.82-1.17-4.34-1.17-7.57V.06Z"/>
      <path class="cls-1" d="m95.19.06h14.97v37.88h-14.97V.06Zm35.51,11.77c0,5.6-2.45,9.29-7.35,11.05,2.75,1.02,4.81,2.68,6.21,4.98,1.21,2.04,1.81,4.42,1.81,7.12v2.95h-16.59V0h1.45c4.9,0,8.51.93,10.83,2.78,2.43,1.95,3.65,4.96,3.65,9.05Z"/>
      <path class="cls-1" d="m138.35.06h14.97v15.25h11.16v7.26h-11.16v15.31h-14.97V.06Zm19.76,35.18c0-3.84,2.23-6.45,6.68-7.82,1.71-.52,3.91-.78,6.6-.78h2.2v11.3h-15.47v-2.7Zm.03-35.18h15.45v10.52h-2.89c-5.03,0-8.46-.79-10.3-2.37-1.5-1.3-2.25-3.4-2.25-6.29V.06Z"/>
      <path class="cls-1" d="m181.05.06h14.97v15.25h11.16v7.26h-11.16v15.31h-14.97V.06Zm19.76,35.18c0-3.84,2.23-6.45,6.68-7.82,1.71-.52,3.91-.78,6.6-.78h2.2v11.3h-15.47v-2.7Zm.03-35.18h15.45v10.52h-2.89c-5.03,0-8.46-.79-10.3-2.37-1.5-1.3-2.25-3.4-2.25-6.29V.06Z"/>
      <path class="cls-1" d="m223.05.06h12.47v3.87c0,4.77-.86,8.02-2.59,9.74-1.41,1.41-3.67,2.12-6.76,2.12h-3.12V.06Zm15.59,0h14.97v37.88h-14.97V.06Zm18.01,0h12.47v15.73h-3.12c-2.04,0-3.54-.22-4.51-.65-.96-.44-1.72-.93-2.27-1.47s-1.02-1.27-1.41-2.16c-.78-1.82-1.17-4.34-1.17-7.57V.06Z"/>
      <path class="cls-1" d="m0,74.94h16.84v13h-1.81c-5.33,0-9.16-.85-11.49-2.56-2.36-1.69-3.53-4.5-3.53-8.43v-2Zm21.46-24.88h15.39v25.72c0,4.1-.94,7.12-2.81,9.05-2.06,2.08-5.42,3.12-10.08,3.12h-2.5v-37.88Z"/>
      <path class="cls-1" d="m43.14,62.22c0-4.1.94-7.11,2.81-9.02,2.06-2.1,5.42-3.15,10.08-3.15h2.5v37.88h-15.39v-25.72Zm20.54-12.16h2.5c6.83,0,10.9,2.31,12.22,6.93.45,1.52.67,3.27.67,5.23v25.72h-15.39v-37.88Z"/>
      <path class="cls-1" d="m87.2,50.03h15.47v37.91h-15.47v-37.91Zm20.71,0h15.47v37.91h-15.47v-37.91Zm20.65,0h2.5c6.83,0,10.91,2.32,12.25,6.96.43,1.5.64,3.24.64,5.2v25.74h-15.39v-37.91Z"/>
      <path class="cls-1" d="m.81,100.06h14.97v15.25h11.16v7.26h-11.16v15.31H.81v-37.82Zm19.79,0h15.45v10.52h-2.89c-5.03,0-8.46-.79-10.3-2.37-1.5-1.3-2.25-3.4-2.25-6.29v-1.86Z"/>
      <path class="cls-1" d="m43.5,100.06h14.97v15.25h11.16v7.26h-11.16v15.31h-14.97v-37.82Zm19.76,35.18c0-3.84,2.23-6.45,6.68-7.82,1.71-.52,3.91-.78,6.6-.78h2.2v11.3h-15.47v-2.7Zm.03-35.18h15.45v10.52h-2.89c-5.03,0-8.46-.79-10.3-2.37-1.5-1.3-2.25-3.4-2.25-6.29v-1.86Z"/>
      <path class="cls-1" d="m86.22,111.24h-.17c0-3.82,1.04-6.64,3.12-8.46,2.08-1.82,5.28-2.73,9.6-2.73l22.79,27.67c0,3.67-.99,6.3-2.98,7.88-1.93,1.54-5.08,2.31-9.46,2.31l-22.91-26.66Zm-.08,7.51l16.53,19.18h-16.53v-19.18Zm18.26-18.7h17.17v19.06l-17.17-19.06Z"/>
      <path class="cls-1" d="m128.19,100.06h12.47v3.87c0,4.77-.86,8.02-2.59,9.74-1.41,1.41-3.66,2.12-6.76,2.12h-3.12v-15.73Zm15.59,0h14.97v37.88h-14.97v-37.88Zm18.01,0h12.47v15.73h-3.12c-2.04,0-3.54-.22-4.51-.65-.96-.44-1.72-.93-2.27-1.47s-1.02-1.27-1.41-2.16c-.78-1.82-1.17-4.34-1.17-7.57v-3.87Z"/>
      <path class="cls-1" d="m181.74,100.06h14.97v37.88h-14.97v-37.88Z"/>
      <path class="cls-1" d="m218.34,137.94c-4.66,0-8.13-1.62-10.41-4.87-2.12-3.01-3.17-7.34-3.17-13v-20.01h1.7c4.79,0,8.27.94,10.44,2.81,2.12,1.84,3.17,4.83,3.17,8.99v26.08h-1.73Zm6.57-26.08c0-4.16,1.06-7.15,3.17-8.99,2.17-1.87,5.65-2.81,10.44-2.81h1.7v20.01c0,8.63-2.47,14.16-7.4,16.59-1.73.85-3.79,1.28-6.21,1.28h-1.7v-26.08Z"/>
      <path class="cls-1" d="m247.2,112.22c0-4.1.94-7.11,2.81-9.02,2.06-2.1,5.42-3.15,10.08-3.15h2.5v37.88h-15.39v-25.72Zm20.54-12.16h2.5c6.83,0,10.9,2.31,12.22,6.93.45,1.52.67,3.27.67,5.23v25.72h-15.39v-37.88Z"/>
      <path class="cls-1" d="m290.26,100.06h14.97v37.82h-14.97v-37.82Zm19.76,35.18c0-3.84,2.23-6.45,6.68-7.82,1.71-.52,3.91-.78,6.6-.78h2.2v11.3h-15.47v-2.7Z"/>
    </g>
  </g>
</svg>